<!DOCTYPE svg PUBLIC "-//W3C//DTD SVG 1.1//EN" "http://www.w3.org/Graphics/SVG/1.1/DTD/svg11.dtd">
<!-- Uploaded to: SVG Repo, www.svgrepo.com, Transformed by: SVG Repo Mixer Tools -->
<svg height="800px" width="800px" version="1.1" id="_x32_" xmlns="http://www.w3.org/2000/svg" xmlns:xlink="http://www.w3.org/1999/xlink" viewBox="0 0 512 512" xml:space="preserve" fill="#ffffff">
<g id="SVGRepo_bgCarrier" stroke-width="0"/>
<g id="SVGRepo_tracerCarrier" stroke-linecap="round" stroke-linejoin="round"/>
<g id="SVGRepo_iconCarrier"> <style type="text/css"> .st0{fill:#ffffff;} </style> <g> <path class="st0" d="M56.535,233.601c19.55-11.638,42.371-18.305,66.75-18.305c2.948,0,5.886,0.09,8.834,0.269 c8.279-28.385,24.102-53.311,45.076-72.591c-3.995-45.354-42.038-80.87-88.414-80.87C39.746,62.104,0,101.849,0,150.885 C0,188.569,23.465,220.717,56.535,233.601z"/> <path class="st0" d="M419.994,265.891c-0.036,0-0.072,0.009-0.117,0.009c0.053-1.532,0.117-3.064,0.117-4.605 c0-73.684-59.726-133.409-133.401-133.409c-69.016,0-125.793,52.413-132.692,119.612c-9.676-2.993-19.962-4.606-30.615-4.606 c-57.162,0-103.502,46.339-103.502,103.502c0,57.162,46.34,103.502,103.502,103.502h296.709c50.81,0,92.006-41.187,92.006-91.998 C512,307.079,470.804,265.891,419.994,265.891z"/> </g> </g>
</svg>