<!DOCTYPE svg PUBLIC "-//W3C//DTD SVG 1.1//EN" "http://www.w3.org/Graphics/SVG/1.1/DTD/svg11.dtd">
<!-- Uploaded to: SVG Repo, www.svgrepo.com, Transformed by: SVG Repo Mixer Tools -->
<svg height="800px" width="800px" version="1.1" id="_x32_" xmlns="http://www.w3.org/2000/svg" xmlns:xlink="http://www.w3.org/1999/xlink" viewBox="0 0 512 512" xml:space="preserve" fill="#ffffff">
<g id="SVGRepo_bgCarrier" stroke-width="0"/>
<g id="SVGRepo_tracerCarrier" stroke-linecap="round" stroke-linejoin="round"/>
<g id="SVGRepo_iconCarrier"> <style type="text/css"> .st0{fill:#ffffff;} </style> <g> <path class="st0" d="M416.297,174.659c-0.047,0-0.084,0-0.121,0c0.056-1.594,0.121-3.178,0.121-4.791 c0-76.635-62.134-138.759-138.759-138.759c-71.789,0-130.848,54.52-138.024,124.417c-10.065-3.113-20.764-4.791-31.846-4.791 C48.211,150.735,0,198.936,0,258.395c0,59.458,48.211,107.66,107.669,107.66h308.628c52.852,0,95.703-42.842,95.703-95.703 C512,217.501,469.149,174.659,416.297,174.659z"/> <path class="st0" d="M96.905,453.445c0,15.162,12.293,27.446,27.456,27.446c15.162,0,27.455-12.283,27.455-27.446 c0-15.163-27.455-53.896-27.455-53.896S96.905,438.282,96.905,453.445z"/> <path class="st0" d="M230.456,453.445c0,15.162,12.301,27.446,27.455,27.446c15.173,0,27.456-12.283,27.456-27.446 c0-15.163-27.456-53.896-27.456-53.896S230.456,438.282,230.456,453.445z"/> <path class="st0" d="M364.024,453.445c0,15.162,12.283,27.446,27.455,27.446c15.154,0,27.456-12.283,27.456-27.446 c0-15.163-27.456-53.896-27.456-53.896S364.024,438.282,364.024,453.445z"/> </g> </g>
</svg>